<svg id="visual" viewBox="0 0 900 900" width="900" height="900" xmlns="http://www.w3.org/2000/svg" xmlns:xlink="http://www.w3.org/1999/xlink" version="1.1"><defs><linearGradient id="grad1_0" x1="0%" y1="0%" x2="100%" y2="100%"><stop offset="30%" stop-color="#ffbe00" stop-opacity="1"></stop><stop offset="70%" stop-color="#ffbe00" stop-opacity="1"></stop></linearGradient></defs><defs><linearGradient id="grad1_1" x1="0%" y1="0%" x2="100%" y2="100%"><stop offset="30%" stop-color="#ffbe00" stop-opacity="1"></stop><stop offset="70%" stop-color="#8d6d29" stop-opacity="1"></stop></linearGradient></defs><defs><linearGradient id="grad1_2" x1="0%" y1="0%" x2="100%" y2="100%"><stop offset="30%" stop-color="#262626" stop-opacity="1"></stop><stop offset="70%" stop-color="#8d6d29" stop-opacity="1"></stop></linearGradient></defs><defs><linearGradient id="grad2_0" x1="0%" y1="0%" x2="100%" y2="100%"><stop offset="30%" stop-color="#ffbe00" stop-opacity="1"></stop><stop offset="70%" stop-color="#ffbe00" stop-opacity="1"></stop></linearGradient></defs><defs><linearGradient id="grad2_1" x1="0%" y1="0%" x2="100%" y2="100%"><stop offset="30%" stop-color="#8d6d29" stop-opacity="1"></stop><stop offset="70%" stop-color="#ffbe00" stop-opacity="1"></stop></linearGradient></defs><defs><linearGradient id="grad2_2" x1="0%" y1="0%" x2="100%" y2="100%"><stop offset="30%" stop-color="#8d6d29" stop-opacity="1"></stop><stop offset="70%" stop-color="#262626" stop-opacity="1"></stop></linearGradient></defs><g transform="translate(900, 0)"><path d="M0 413.7C-40.9 373.6 -81.8 333.6 -131.3 316.9C-180.7 300.1 -238.8 306.7 -284.3 284.3C-329.7 261.8 -362.7 210.5 -382.2 158.3C-401.6 106.1 -407.7 53.1 -413.7 0L0 0Z" fill="#59482a"></path><path d="M0 275.8C-27.3 249.1 -54.5 222.4 -87.5 211.3C-120.5 200.1 -159.2 204.4 -189.5 189.5C-219.8 174.6 -241.8 140.3 -254.8 105.5C-267.8 70.7 -271.8 35.4 -275.8 0L0 0Z" fill="#c59421"></path><path d="M0 137.9C-13.6 124.5 -27.3 111.2 -43.8 105.6C-60.2 100 -79.6 102.2 -94.8 94.8C-109.9 87.3 -120.9 70.2 -127.4 52.8C-133.9 35.4 -135.9 17.7 -137.9 0L0 0Z" fill="#ffbe00"></path></g><g transform="translate(0, 900)"><path d="M0 -413.7C47.7 -388.3 95.5 -363 141.6 -341.8C187.7 -320.7 232.2 -303.7 275.1 -275.1C318 -246.4 359.3 -206.1 382.2 -158.3C405 -110.5 409.3 -55.3 413.7 0L0 0Z" fill="#59482a"></path><path d="M0 -275.8C31.8 -258.9 63.7 -242 94.4 -227.9C125.1 -213.8 154.8 -202.5 183.4 -183.4C212 -164.3 239.6 -137.4 254.8 -105.5C270 -73.7 272.9 -36.8 275.8 0L0 0Z" fill="#c59421"></path><path d="M0 -137.9C15.9 -129.4 31.8 -121 47.2 -113.9C62.6 -106.9 77.4 -101.2 91.7 -91.7C106 -82.1 119.8 -68.7 127.4 -52.8C135 -36.8 136.4 -18.4 137.9 0L0 0Z" fill="#ffbe00"></path></g></svg>