<?xml version="1.0" standalone="no"?>
<!DOCTYPE svg PUBLIC "-//W3C//DTD SVG 20010904//EN"
 "http://www.w3.org/TR/2001/REC-SVG-20010904/DTD/svg10.dtd">
<svg version="1.0" xmlns="http://www.w3.org/2000/svg"
 width="512.000000pt" height="512.000000pt" viewBox="0 0 512.000000 512.000000"
 preserveAspectRatio="xMidYMid meet">
<metadata>
Created by potrace 1.14, written by Peter Selinger 2001-2017
</metadata>
<g transform="translate(0.000000,512.000000) scale(0.100000,-0.100000)"
fill="#000000" stroke="none">
<path d="M2545 4565 c-27 -10 -43 -11 -51 -4 -29 24 -58 5 -88 -56 -15 -33
-35 -72 -42 -87 -8 -14 -14 -33 -14 -41 0 -9 -10 -37 -21 -64 -12 -26 -21 -64
-20 -83 0 -26 -8 -46 -30 -73 -40 -48 -73 -52 -49 -6 15 27 8 24 -46 -21 -40
-33 -56 -40 -91 -40 -24 0 -43 -4 -43 -10 0 -5 -7 -10 -15 -10 -8 0 -15 -7
-15 -16 0 -18 -14 -34 -55 -58 -34 -20 -80 -74 -72 -83 3 -3 15 4 27 15 11 10
45 31 75 47 30 15 55 31 55 36 0 5 8 9 17 9 9 0 27 9 39 21 14 13 41 22 79 26
45 5 59 10 63 25 8 32 24 20 17 -14 -9 -39 -24 -67 -47 -89 -10 -9 -18 -24
-18 -33 0 -9 -4 -16 -8 -16 -5 0 -15 -11 -22 -25 -8 -16 -22 -25 -37 -25 -15
0 -23 -6 -23 -17 0 -10 -7 -27 -15 -37 -8 -11 -15 -34 -15 -50 -1 -44 -20 -65
-53 -59 -19 4 -27 1 -27 -8 1 -19 24 -102 32 -114 3 -6 6 -77 6 -158 0 -124
-3 -151 -18 -170 -9 -12 -20 -34 -24 -49 -3 -16 -9 -40 -12 -55 -4 -16 -15
-35 -26 -44 -11 -9 -41 -58 -67 -109 -26 -52 -52 -95 -58 -97 -6 -2 -18 3 -26
12 -20 19 -61 19 -77 0 -18 -22 -23 -20 -60 30 -19 25 -37 45 -42 45 -4 0 -8
-21 -8 -46 l0 -46 -32 7 c-27 6 -138 57 -223 103 -11 6 -41 20 -67 31 -25 11
-49 25 -53 30 -3 6 -23 18 -43 27 -35 16 -166 104 -222 149 -48 38 -162 160
-177 190 -8 17 -23 39 -33 50 -10 11 -27 36 -37 55 -17 31 -25 36 -69 40 -58
7 -85 20 -114 57 -12 16 -49 58 -83 94 -101 107 -141 154 -157 185 -8 16 -22
38 -31 49 -9 11 -36 55 -61 98 -24 42 -47 74 -51 70 -11 -10 -8 -100 4 -130
60 -149 142 -277 259 -409 143 -162 179 -200 214 -233 22 -20 69 -64 105 -98
48 -47 72 -63 93 -63 21 0 28 -5 28 -20 0 -12 15 -29 38 -44 20 -13 43 -31 51
-40 7 -9 17 -16 22 -16 4 0 27 -13 51 -29 24 -15 72 -43 108 -61 36 -17 90
-45 120 -61 30 -15 61 -28 68 -29 7 0 24 -7 37 -16 14 -9 63 -31 110 -48 48
-18 94 -39 103 -47 9 -8 32 -21 50 -28 28 -12 32 -18 32 -50 0 -61 43 -85 53
-31 7 34 34 32 39 -3 2 -16 16 -24 67 -36 62 -14 64 -14 81 7 15 18 29 22 78
22 69 0 95 -18 74 -51 -7 -10 -12 -24 -12 -30 0 -6 -15 -25 -33 -43 -36 -33
-65 -87 -80 -151 -17 -67 -12 -244 9 -385 5 -31 7 -33 17 -15 10 18 12 16 18
-20 5 -29 1 -54 -13 -90 -13 -34 -18 -62 -14 -87 5 -32 3 -39 -21 -56 -16 -10
-35 -21 -43 -24 -9 -3 -22 -18 -30 -34 -8 -16 -28 -49 -45 -74 -27 -40 -75
-128 -75 -137 0 -2 7 -3 16 -3 11 0 14 -5 9 -17 -22 -55 -19 -57 27 -20 25 20
49 37 53 37 4 0 4 -21 1 -47 -17 -110 -18 -124 -11 -141 5 -14 9 -12 20 13
l13 30 1 -26 c1 -29 29 -59 54 -59 22 0 23 -45 2 -86 -11 -23 -12 -38 -4 -66
8 -32 6 -41 -16 -74 -14 -21 -28 -49 -32 -63 -6 -25 -34 -81 -75 -148 -10 -17
-32 -36 -48 -42 -25 -8 -30 -16 -30 -41 0 -43 26 -89 56 -100 14 -6 66 -10
115 -10 86 0 91 1 115 27 61 70 91 100 113 113 23 15 23 20 26 175 3 248 2
236 35 275 18 21 30 48 32 70 3 31 6 35 35 38 28 3 32 7 38 42 4 22 4 48 0 60
-5 15 -1 22 19 30 30 11 30 13 14 40 -10 16 -10 24 0 40 18 29 15 79 -9 146
-11 32 -23 68 -26 79 -3 11 -10 25 -15 31 -17 22 5 50 36 45 4 -1 23 10 41 24
43 32 49 32 42 -5 -4 -20 -2 -32 8 -37 11 -6 15 -35 17 -113 2 -61 7 -105 13
-105 6 0 11 14 13 30 3 40 23 107 35 120 16 17 0 -135 -22 -210 -42 -140 -65
-206 -73 -211 -4 -3 -8 -13 -8 -22 0 -9 -14 -46 -31 -82 -55 -115 -56 -120
-15 -81 30 30 63 83 107 174 5 9 14 26 19 37 6 11 10 26 10 33 0 30 32 117 40
112 6 -4 10 -44 10 -90 0 -74 2 -84 19 -90 11 -3 22 -14 24 -23 3 -9 4 30 4
88 -2 109 14 190 37 190 15 0 56 80 82 162 11 32 22 58 27 58 16 0 28 -54 18
-78 -6 -12 -11 -30 -11 -39 0 -14 2 -14 20 2 11 10 20 31 20 46 0 20 9 34 33
50 17 13 38 31 45 41 11 16 15 16 50 1 20 -8 44 -21 53 -29 8 -8 23 -14 32
-14 20 0 57 -68 57 -105 0 -24 -12 -30 -48 -26 -7 1 -15 -5 -18 -14 -8 -19 13
-93 33 -116 7 -8 13 -27 13 -40 0 -14 9 -32 20 -42 11 -9 20 -26 20 -36 0 -25
18 -37 26 -17 7 19 43 20 67 2 22 -17 22 -26 -3 -26 -28 0 -25 -27 4 -34 28
-7 115 -129 141 -199 10 -26 22 -50 26 -53 5 -3 9 -20 9 -38 0 -17 5 -37 11
-43 12 -12 19 -59 23 -165 2 -58 24 -153 46 -198 13 -27 85 -25 122 3 18 14
58 30 88 37 30 7 61 17 68 23 22 17 6 87 -27 122 -16 17 -32 41 -36 55 -4 14
-18 41 -31 60 -32 49 -40 86 -20 93 23 9 20 34 -12 102 -48 102 -72 208 -72
311 0 41 -5 84 -10 95 -9 15 -7 21 7 26 45 16 71 70 43 88 -5 3 -10 22 -10 42
0 23 -9 45 -25 65 -14 16 -25 38 -25 48 0 11 -8 24 -18 29 -23 12 -97 15 -134
6 l-27 -7 0 110 c0 99 -3 115 -26 158 -32 59 -30 98 4 102 21 3 23 0 19 -22
-3 -14 -1 -26 3 -26 5 0 9 8 10 18 1 40 9 95 14 100 3 3 24 -16 48 -42 24 -25
46 -43 50 -40 4 4 2 13 -3 19 -6 7 -13 37 -15 66 -9 98 -17 132 -42 178 -14
25 -29 50 -34 55 -12 13 -11 63 1 87 6 10 19 19 30 19 10 0 22 5 25 10 3 5 21
10 40 10 19 0 37 5 40 10 3 6 22 10 41 10 28 0 34 -4 34 -20 0 -28 25 -35 55
-16 13 9 40 16 59 16 23 0 38 6 45 18 8 14 13 15 30 5 21 -13 77 -7 87 9 3 5
1 15 -5 22 -15 18 1 34 81 79 35 19 74 47 87 61 14 14 32 26 41 26 9 0 27 11
40 25 13 14 34 25 46 25 13 0 26 5 29 10 3 6 13 10 20 10 8 0 46 20 85 45 39
25 74 45 79 45 5 0 11 4 13 9 2 4 43 34 93 66 81 52 155 117 155 136 0 4 10 9
23 11 18 2 22 9 21 36 -2 29 1 32 27 32 23 0 37 11 71 56 24 31 48 64 53 73 6
9 25 37 43 64 17 26 32 54 32 62 0 8 4 15 8 15 4 0 14 17 21 38 8 20 24 53 36
72 12 19 25 49 29 65 14 59 24 101 40 158 19 69 21 198 3 247 -15 42 -56 110
-66 110 -5 0 -11 -26 -15 -57 -9 -79 -26 -164 -37 -185 -5 -10 -9 -25 -9 -33
0 -8 -4 -23 -9 -33 -5 -9 -15 -32 -21 -50 -7 -18 -28 -52 -46 -75 -19 -23 -34
-52 -34 -63 0 -49 -57 -88 -140 -96 -18 -2 -27 -11 -34 -33 -5 -16 -12 -39
-16 -50 -4 -11 -13 -36 -19 -55 -7 -19 -16 -52 -20 -72 -5 -20 -17 -50 -27
-67 -36 -56 -186 -212 -223 -231 -21 -10 -43 -26 -50 -34 -27 -33 -259 -176
-285 -176 -9 0 -16 -4 -16 -10 0 -5 -7 -10 -15 -10 -9 0 -26 -7 -38 -15 -21
-14 -23 -12 -41 31 -14 35 -23 44 -39 42 -16 -2 -23 -15 -32 -58 -11 -59 -36
-120 -47 -120 -3 0 -13 7 -22 15 -8 8 -19 15 -24 15 -10 0 -31 36 -80 135 -45
90 -115 206 -133 219 -10 7 -39 50 -65 95 -26 46 -54 86 -63 88 -28 7 -44 44
-47 104 -2 51 0 58 22 68 29 13 31 38 5 91 -11 24 -15 40 -8 40 26 0 45 32 41
68 -10 69 -14 79 -39 90 -20 9 -24 16 -19 40 7 36 -15 48 -54 28 -15 -7 -37
-17 -50 -20 -21 -7 -22 -6 -16 34 5 33 3 45 -13 63 -11 12 -24 29 -29 38 -8
15 -14 15 -69 -2 -33 -11 -75 -26 -93 -35 -46 -22 -63 -13 -55 28 3 18 10 41
14 50 5 9 9 38 9 63 0 39 -3 46 -17 43 -13 -2 -19 -14 -20 -37 -1 -19 -11 -47
-22 -62 -12 -16 -21 -33 -21 -39 0 -5 -7 -10 -15 -10 -17 0 -20 16 -5 25 6 3
10 24 10 45 0 30 6 43 28 59 l27 21 -22 17 c-19 15 -22 25 -17 58 9 62 13 70
26 57 7 -7 21 -12 31 -12 17 0 19 5 14 43 -4 34 -13 48 -49 77 -23 19 -59 52
-80 72 -41 42 -128 98 -149 98 -8 -1 -32 -7 -54 -15z m-116 -417 c15 -33 23
-70 22 -104 0 -12 8 -29 19 -39 28 -26 26 -32 -24 -55 -25 -11 -48 -24 -51
-30 -3 -5 -38 -10 -76 -10 -68 0 -70 -1 -80 -29 -11 -32 -32 -45 -60 -36 -29
10 -23 27 26 78 25 26 45 54 45 62 0 8 5 15 10 15 6 0 10 8 10 18 0 9 20 34
45 56 25 21 45 45 45 54 0 18 29 52 44 52 6 0 17 -14 25 -32z m619 -880 c16
-8 22 -20 22 -44 0 -24 6 -36 23 -45 31 -16 108 -96 135 -140 12 -20 22 -48
22 -61 0 -20 14 -34 68 -69 45 -30 73 -56 85 -81 11 -22 27 -38 42 -42 18 -5
25 -13 25 -31 0 -28 -35 -47 -110 -59 -24 -4 -53 -14 -63 -24 -15 -13 -22 -14
-37 -4 -27 17 -50 15 -50 -4 0 -9 -4 -14 -9 -12 -25 9 -145 134 -168 175 -14
26 -31 53 -37 59 -7 6 -23 32 -36 57 -24 45 -24 46 -5 67 18 20 18 21 -3 36
-25 17 -27 35 -10 116 11 53 10 59 -7 72 -19 14 -19 15 -1 35 15 17 27 20 55
15 20 -3 46 -10 59 -16z m-785 -130 c6 -23 -12 -67 -37 -87 -14 -12 -16 -9
-16 21 0 66 40 116 53 66z m-95 -162 c-31 -28 -34 -36 -34 -87 0 -44 -4 -60
-22 -79 -12 -13 -22 -28 -22 -32 0 -5 -28 -8 -62 -6 -56 3 -63 6 -66 24 -2 16
7 28 30 42 18 11 43 35 56 51 12 17 32 31 42 31 14 0 25 12 37 41 8 22 25 44
37 49 37 14 39 -2 4 -34z m1018 -641 c9 -14 13 -29 9 -33 -7 -7 -45 34 -45 49
0 18 20 9 36 -16z m-1256 -995 c0 -33 -3 -40 -20 -40 -11 0 -20 7 -20 15 0 15
28 65 36 65 2 0 4 -18 4 -40z"/>
<path d="M2321 4034 c0 -11 3 -14 6 -6 3 7 2 16 -1 19 -3 4 -6 -2 -5 -13z"/>
<path d="M2830 4235 c0 -19 5 -35 10 -35 6 0 10 16 10 35 0 19 -4 35 -10 35
-5 0 -10 -16 -10 -35z"/>
<path d="M2870 4226 c0 -14 4 -27 9 -30 12 -8 22 20 15 39 -9 23 -24 18 -24
-9z"/>
<path d="M1947 3773 c-13 -12 -7 -23 13 -23 11 0 20 7 20 15 0 15 -21 21 -33
8z"/>
</g>
</svg>
